<svg viewBox="0 0 240 96" height="96" width="240" style="width: 240px; height: 96px; position: absolute; top: 50%; left: 50%; transform: translate(-50%, -50%) scale(0.8725); z-index: 0; cursor: pointer;">
    <defs id="SvgjsDefs2034"></defs>
    <g id="SvgjsG2035" featurekey="rootContainer" transform="matrix(1,0,0,1,0,0)" fill="#ffffff">
        <rect xmlns="http://www.w3.org/2000/svg" width="240" height="96" rx="10" ry="10"></rect>
    </g>
    <g id="SvgjsG2036" featurekey="q4o0QG-0" transform="matrix(3.663003509451471,0,0,3.663003509451471,18.60806217718737,1.5384624520970824)" fill="#111111">
        <path d="M3.84 5.039999999999999 l0.54 0.22 l0.74 6 l0.26 -0.04 l1.04 -6.18 l3.56 0.42 c0.02 0.64 0.12 2.48 0.18 4.14 c0.02 0.98 0.04 2.06 0.04 3.2 l0.12 5.08 l0 1.66 l-0.1 0.46 l0 0.12 c-0.26 0.02 -0.52 0.02 -0.8 0.02 c-0.42 0 -0.96 0.04 -1.38 -0.02 l-0.5 -7.98 l-0.38 0.2 l-1.02 7.62 l-1.76 0.06 l-1.1 -7.58 l-0.84 -0.28 l-0.22 7.92 l-1.84 0 l0.24 -14.8 z M11.46 19.92 l-0.04 -6.94 l0.08 -0.74 l-0.04 -0.74 l0.1 -4.42 l0.18 -1.72 l6.5 0.12 l0.1 3.9 l-4.26 0 l-0.08 2.5 l3.26 -0.06 l0 0.22 l0.1 1.7 l-3.04 0.06 l0.1 2.96 l4.06 0.2 l0 3.08 z M19.520000000000003 19.92 l-0.04 -6.94 l0.08 -0.74 l-0.04 -0.74 l0.1 -4.42 l0.18 -1.72 l6.5 0.12 l0.1 3.9 l-4.26 0 l-0.08 2.5 l3.26 -0.06 l0 0.22 l0.1 1.7 l-3.04 0.06 l0.1 2.96 l4.06 0.2 l0 3.08 z M30.66 5.039999999999999 l0.54 0.22 l0.74 6 l0.26 -0.04 l1.04 -6.18 l3.56 0.42 c0.02 0.64 0.12 2.48 0.18 4.14 c0.02 0.98 0.04 2.06 0.04 3.2 l0.12 5.08 l0 1.66 l-0.1 0.46 l0 0.12 c-0.26 0.02 -0.52 0.02 -0.8 0.02 c-0.42 0 -0.96 0.04 -1.38 -0.02 l-0.5 -7.98 l-0.38 0.2 l-1.02 7.62 l-1.76 0.06 l-1.1 -7.58 l-0.84 -0.28 l-0.22 7.92 l-1.84 0 l0.24 -14.8 z M45.88 7.199999999999999 l-0.08 10.84 l-0.22 1.44 l-0.64 0.52 l-2.04 0.22 l-3.74 -0.36 l-0.54 -0.54 l-0.38 -0.82 l0.08 -3.44 c0 -1.5 0.02 -2.86 0.06 -4.06 c-0.02 -2.04 0 -4.08 0.06 -4.18 c0 -0.08 0.12 -0.42 0.34 -0.74 l0.26 -0.64 l3.16 -0.3 l2.26 0.28 l1.12 0.44 z M42.260000000000005 17.3 l0.74 -0.3 l0.24 -7.48 l-0.48 -0.28 l-1.92 -0.04 l-0.18 0.68 l0.04 2.82 l0 4.48 l0.32 0.06 z M54.980000000000004 7.199999999999999 l-0.08 10.84 l-0.22 1.44 l-0.64 0.52 l-2.04 0.22 l-3.74 -0.36 l-0.54 -0.54 l-0.38 -0.82 l0.08 -3.44 c0 -1.5 0.02 -2.86 0.06 -4.06 c-0.02 -2.04 0 -4.08 0.06 -4.18 c0 -0.08 0.12 -0.42 0.34 -0.74 l0.26 -0.64 l3.16 -0.3 l2.26 0.28 l1.12 0.44 z M51.36000000000001 17.3 l0.74 -0.3 l0.24 -7.48 l-0.48 -0.28 l-1.92 -0.04 l-0.18 0.68 l0.04 2.82 l0 4.48 l0.32 0.06 z"></path>
    </g>
</svg>
